<svg width="68" height="68" viewBox="0 0 68 68" fill="none" xmlns="http://www.w3.org/2000/svg">
<g filter="url(#filter0_d_14_398)">
<g clip-path="url(#clip0_14_398)">
<path d="M34 0C17.4357 0 4 13.4357 4 30C4 46.5643 17.4357 60 34 60C50.5643 60 64 46.5643 64 30C64 13.4357 50.5643 0 34 0ZM34 47.1429C24.5286 47.1429 16.8571 39.4714 16.8571 30C16.8571 20.5286 24.5286 12.8571 34 12.8571C43.4714 12.8571 51.1429 20.5286 51.1429 30C51.1429 39.4714 43.4714 47.1429 34 47.1429Z" fill="#5BA1F4"/>
<path d="M34 0C17.4357 0 4 13.4357 4 30C4 46.5643 17.4357 60 34 60C50.5643 60 64 46.5643 64 30C64 13.4357 50.5643 0 34 0ZM34 53.5714C20.9714 53.5714 10.4286 43.0286 10.4286 30C10.4286 16.9714 20.9714 6.42857 34 6.42857C47.0286 6.42857 57.5714 16.9714 57.5714 30C57.5714 43.0286 47.0286 53.5714 34 53.5714Z" fill="#3582EB"/>
<path d="M36.4856 34.6716H30.5713V34.0716C30.5713 33.0644 30.6785 32.2502 30.9142 31.6287C31.1499 31.0073 31.4713 30.4287 31.9213 29.9144C32.3713 29.4002 33.3785 28.4787 34.9642 27.1716C35.7999 26.4859 36.2285 25.8644 36.2285 25.2859C36.2285 24.7073 36.057 24.2787 35.7142 23.9573C35.3713 23.6359 34.857 23.4859 34.1928 23.4859C33.4642 23.4859 32.8428 23.7216 32.3713 24.2144C31.8999 24.7073 31.5785 25.543 31.4499 26.7644L25.4285 26.0144C25.6428 23.8073 26.4356 22.0073 27.8499 20.6573C29.2428 19.3073 31.407 18.6216 34.2999 18.6216C36.5499 18.6216 38.3713 19.093 39.7642 20.0359C41.6499 21.3002 42.5928 23.0144 42.5928 25.1359C42.5928 26.0144 42.357 26.8716 41.8642 27.6859C41.3713 28.5002 40.3856 29.5073 38.8856 30.6859C37.8356 31.5216 37.1713 32.1859 36.9142 32.6787C36.6142 33.2144 36.4856 33.8787 36.4856 34.6716Z" fill="#E86F2D"/>
<path d="M33.6572 42.4286C35.4324 42.4286 36.8714 40.9895 36.8714 39.2143C36.8714 37.4391 35.4324 36 33.6572 36C31.882 36 30.4429 37.4391 30.4429 39.2143C30.4429 40.9895 31.882 42.4286 33.6572 42.4286Z" fill="#E86F2D"/>
</g>
</g>
<defs>
<filter id="filter0_d_14_398" x="0" y="0" width="68" height="68" filterUnits="userSpaceOnUse" color-interpolation-filters="sRGB">
<feFlood flood-opacity="0" result="BackgroundImageFix"/>
<feColorMatrix in="SourceAlpha" type="matrix" values="0 0 0 0 0 0 0 0 0 0 0 0 0 0 0 0 0 0 127 0" result="hardAlpha"/>
<feOffset dy="4"/>
<feGaussianBlur stdDeviation="2"/>
<feComposite in2="hardAlpha" operator="out"/>
<feColorMatrix type="matrix" values="0 0 0 0 0 0 0 0 0 0 0 0 0 0 0 0 0 0 0.25 0"/>
<feBlend mode="normal" in2="BackgroundImageFix" result="effect1_dropShadow_14_398"/>
<feBlend mode="normal" in="SourceGraphic" in2="effect1_dropShadow_14_398" result="shape"/>
</filter>
<clipPath id="clip0_14_398">
<rect width="60" height="60" fill="white" transform="translate(4)"/>
</clipPath>
</defs>
</svg>
